HIERARCHY
ROOT Hips
{
    OFFSET 0.000000 0.000000 0.000000
    CHANNELS 6 Xposition Yposition Zposition Zrotation Xrotation Yrotation
    JOINT Spine
    {
        OFFSET -0.000000 7.246840 0.000000
        CHANNELS 3 Zrotation Xrotation Yrotation
        JOINT Spine1
        {
            OFFSET -0.000000 20.289354 0.000000
            CHANNELS 3 Zrotation Xrotation Yrotation
            JOINT Neck
            {
                OFFSET -0.000000 20.206032 1.836912
                CHANNELS 3 Zrotation Xrotation Yrotation
                JOINT Head
                {
                    OFFSET -0.000000 12.372654 -1.767522
                    CHANNELS 3 Zrotation Xrotation Yrotation
                    End Site
                    {
                        OFFSET -0.000000 22.094025 0.000000
                    }
                }
            }
            JOINT LeftShoulder
            {
                OFFSET 3.465871 17.201674 -0.568930
                CHANNELS 3 Zrotation Xrotation Yrotation
                JOINT LeftArm
                {
                    OFFSET 14.070313 0.000000 0.000000
                    CHANNELS 3 Zrotation Xrotation Yrotation
                    JOINT LeftForeArm
                    {
                        OFFSET 26.549477 0.000000 0.000000
                        CHANNELS 3 Zrotation Xrotation Yrotation
                        JOINT LeftHand
                        {
                            OFFSET 18.880413 0.000000 0.000000
                            CHANNELS 3 Zrotation Xrotation Yrotation
                            End Site
                            {
                                OFFSET 13.256415 0.000000 0.000000
                            }
                        }
                    }
                }
            }
            JOINT RightShoulder
            {
                OFFSET -3.526370 17.201674 -0.568930
                CHANNELS 3 Zrotation Xrotation Yrotation
                JOINT RightArm
                {
                    OFFSET -14.070313 0.000000 0.000000
                    CHANNELS 3 Zrotation Xrotation Yrotation
                    JOINT RightForeArm
                    {
                        OFFSET -26.549477 0.000000 0.000000
                        CHANNELS 3 Zrotation Xrotation Yrotation
                        JOINT RightHand
                        {
                            OFFSET -18.880413 0.000000 0.000000
                            CHANNELS 3 Zrotation Xrotation Yrotation
                            End Site
                            {
                                OFFSET -13.256415 0.000000 0.000000
                            }
                        }
                    }
                }
            }
        }
    }
    JOINT LeftUpLeg
    {
        OFFSET 8.837609 0.000000 0.000000
        CHANNELS 3 Zrotation Xrotation Yrotation
        JOINT LeftLeg
        {
            OFFSET -0.000000 -41.345005 0.000000
            CHANNELS 3 Zrotation Xrotation Yrotation
            JOINT LeftFoot
            {
                OFFSET -0.000000 -35.500874 0.000000
                CHANNELS 3 Zrotation Xrotation Yrotation
                JOINT LeftToeBase
                {
                    OFFSET -0.000000 -5.744446 13.256415
                    CHANNELS 3 Zrotation Xrotation Yrotation
                    End Site
                    {
                        OFFSET -0.000000 0.000000 3.535044
                    }
                }
            }
        }
    }
    JOINT RightUpLeg
    {
        OFFSET -8.837609 0.000000 0.000000
        CHANNELS 3 Zrotation Xrotation Yrotation
        JOINT RightLeg
        {
            OFFSET -0.000000 -41.345005 0.000000
            CHANNELS 3 Zrotation Xrotation Yrotation
            JOINT RightFoot
            {
                OFFSET -0.000000 -35.500874 0.000000
                CHANNELS 3 Zrotation Xrotation Yrotation
                JOINT RightToeBase
                {
                    OFFSET -0.000000 -5.744446 13.256415
                    CHANNELS 3 Zrotation Xrotation Yrotation
                    End Site
                    {
                        OFFSET -0.000000 0.000000 3.535044
                    }
                }
            }
        }
    }
}
MOTION
Frames:    10
Frame Time:    0.010000
2.534059    79.355156    26.676405    3.405072    -2.997391    -1.001315    0.324996    0.159020    -2.493911    2.738310    14.121641    -2.832709    -1.374757    23.232437    -3.270165    -5.154695    -4.033423    -4.407919    6.898736    2.183418    7.708337    -70.630043    56.246368    -21.165262    6.876835    -9.677007    -19.797880    -22.987688    -2.805048    -27.543489    -3.539124    0.764390    15.525485    72.475967    38.523392    7.874626    -9.255890    -14.702152    17.067728    20.328802    -8.932259    24.726051    1.412349    -4.605207    -5.174812    -6.198245    61.125198    -1.500440    4.590457    -2.306800    -2.130731    -1.285258    -17.971878    2.049681    -7.780063    -16.667303    -3.174523    -3.158715    26.805328    7.148896    11.259048    -8.197824    -2.520267    -1.208395    -2.831746    2.236102    
2.308690    79.610321    27.197939    3.671714    -3.130843    0.531364    0.536480    0.857559    -2.294364    2.272931    13.790708    -2.565274    -0.998480    23.640890    -3.915744    -4.209390    -4.902874    -4.921257    7.229986    2.063696    7.595811    -69.820145    56.761898    -21.909548    6.696731    -9.889438    -20.229622    -22.675728    -3.134106    -27.408857    -3.106019    1.115530    15.686635    72.499573    38.580917    7.455645    -9.161045    -14.567821    17.235550    20.363785    -8.797612    24.673424    1.310352    -7.518897    -5.553517    -6.520686    65.564606    -3.479429    4.406269    -2.790997    -1.449612    -1.188693    -17.297714    1.884486    -8.215051    -15.133350    -4.174333    -2.933322    25.598707    6.680357    11.022152    -8.107701    -2.648704    -1.260518    -2.737367    2.330020    
2.135211    79.878708    27.720615    4.126712    -3.228153    2.000653    0.430739    1.540166    -2.112766    2.063246    13.485328    -2.350919    -0.833828    23.820652    -4.541124    -3.173043    -5.446448    -5.384690    7.350776    1.901182    7.578604    -68.998741    57.386539    -22.562906    6.539551    -10.177720    -20.726656    -22.268166    -3.531998    -27.392555    -2.729242    1.346626    15.728497    72.322845    38.867943    7.161546    -8.985071    -14.311024    17.310381    20.253647    -8.565221    24.756899    0.749568    -10.419194    -5.460263    -5.159797    69.659897    -6.639050    4.173123    -3.301716    -0.747567    -0.951219    -16.442421    1.496948    -8.816236    -13.698558    -4.674057    -2.489653    24.571707    6.169872    10.613212    -8.316990    -3.366919    -0.934319    -3.024223    1.732817    
1.999483    80.173187    28.244841    4.650641    -3.299545    3.338562    -0.028520    2.087410    -2.000434    2.549693    13.317547    -2.298682    -1.351035    24.026487    -5.019361    -2.182024    -5.876882    -5.743274    6.728609    1.657964    7.603645    -68.332947    57.685555    -22.619781    6.378899    -10.431690    -21.519680    -21.990545    -3.850832    -27.357616    -3.125581    1.971553    16.012520    71.951187    39.070026    7.636642    -8.947279    -14.151325    17.118917    20.092627    -8.411712    25.015333    -0.025523    -13.274449    -5.320960    -3.151763    73.416412    -10.060554    4.068128    -4.113877    -0.012117    -0.646637    -15.579383    1.010251    -9.408813    -12.304159    -4.936542    -2.063950    23.546812    5.818173    10.153848    -8.423962    -4.283548    -1.289423    -2.591642    2.379480    
1.860682    80.509277    28.751888    5.135072    -3.275361    4.588670    -0.448247    2.380913    -1.673456    2.702979    13.482006    -2.002330    -0.943196    23.873505    -5.735134    -1.668863    -5.920073    -6.357554    6.753978    1.580637    7.124655    -68.371506    56.860199    -22.771364    6.031243    -10.157893    -21.939091    -21.881496    -3.643993    -27.357496    -2.697204    1.606958    15.940521    72.214554    38.709774    6.878336    -8.956081    -13.559139    16.915882    19.799229    -7.884025    25.043955    -0.800497    -16.156260    -5.353167    -1.647688    76.715134    -12.049388    4.323168    -4.640200    0.125101    -0.592398    -14.847854    0.919927    -9.863099    -11.076118    -5.199100    -1.761497    22.593376    5.729657    9.603048    -8.793438    -5.339442    -1.186623    -2.428987    2.185766    
1.737990    80.870667    29.253614    5.562884    -3.230543    5.696366    -0.434643    2.632401    -1.497396    2.261807    13.753421    -1.780172    -0.807045    23.379904    -6.238909    -1.047799    -5.606025    -6.745360    6.855762    1.343746    7.169934    -67.799400    57.274498    -23.176319    6.177011    -10.572788    -22.417910    -21.960632    -3.975370    -27.427786    -2.558086    1.348940    15.929632    72.538452    39.294243    6.754444    -9.335122    -13.510612    16.439939    19.919083    -7.764361    25.186850    -1.543274    -18.954233    -5.432621    -0.433533    79.777374    -15.170681    4.827116    -5.190601    1.890523    -0.401529    -14.501843    0.621773    -10.218237    -9.872490    -5.067540    -1.345646    21.547655    5.308796    9.079209    -8.837589    -6.348156    -1.066813    -2.431070    1.965154    
1.610731    81.245056    29.769316    5.880758    -3.153660    6.655436    -0.447221    2.767172    -1.279616    2.011819    14.077098    -1.538818    -0.689336    23.068880    -6.644053    -0.565336    -5.502691    -7.064621    6.888845    1.361194    7.212279    -67.074539    57.309940    -23.922035    6.130534    -10.769710    -22.825020    -21.880049    -4.179842    -27.439495    -2.526069    1.215486    15.933087    72.774635    39.733273    6.781749    -9.906215    -13.388471    15.786968    20.266968    -7.454678    25.618488    -2.134218    -21.691362    -5.561697    -0.538673    82.386063    -15.621205    5.165449    -5.635250    2.483188    -0.563132    -14.125611    0.869359    -10.389742    -8.759665    -5.053725    -1.226873    20.607903    5.423023    8.664350    -8.985086    -7.497734    -0.981226    -2.394072    1.806757    
1.497639    81.625450    30.301989    6.171717    -3.117014    7.469140    -0.427893    2.867676    -0.968028    1.691789    14.459242    -1.193332    -0.546517    22.803761    -7.189012    -0.025272    -5.433865    -7.518848    7.062900    1.689648    7.313844    -66.035843    57.126938    -25.349607    6.051900    -10.667616    -23.009623    -21.807257    -4.110557    -27.389608    -2.503762    1.171125    15.801828    72.970352    40.042370    6.928953    -10.118807    -13.428288    15.432070    19.656063    -7.710964    25.224331    -2.715546    -24.231213    -5.715444    -2.807294    84.569817    -13.619410    5.207596    -6.224590    2.928874    -0.333385    -13.528948    0.512229    -10.497894    -7.636508    -4.952593    -1.063054    19.558043    5.137337    8.236287    -8.859292    -8.147707    -0.961088    -2.395834    1.769715    
1.425573    81.988815    30.839094    6.474739    -3.112756    8.176231    -0.377696    3.004866    -0.654601    1.369781    14.801862    -0.842528    -0.548473    22.528313    -7.706744    0.543503    -5.342786    -7.949739    7.122899    1.693664    7.229152    -65.588928    57.018883    -25.921692    6.149110    -10.441186    -23.172596    -21.812813    -3.823271    -27.522942    -2.591158    1.189719    15.694332    73.150810    40.205524    7.142190    -10.431961    -13.684736    15.110740    19.681555    -8.033133    24.784172    -3.372981    -26.567556    -6.126275    -11.697631    86.310555    -4.982171    4.825438    -6.510844    3.500768    -0.355251    -13.854716    0.547245    -10.600981    -6.566836    -5.251236    -1.254670    18.558899    5.076443    8.060287    -8.783315    -8.502645    -0.973459    -2.293265    1.790411    
1.365556    82.322701    31.388786    6.799185    -3.142200    8.829343    -0.387695    3.297869    -0.346584    1.117365    14.918086    -0.504170    -0.612255    22.334837    -8.237459    1.058508    -5.336663    -8.408427    7.137412    1.641336    7.232506    -65.576477    56.734310    -26.155113    6.173505    -9.977649    -23.128080    -21.495579    -3.401231    -27.672083    -2.772368    1.237305    15.586906    73.450333    40.389877    7.221539    -10.689281    -13.864758    14.917922    19.795540    -8.258152    24.325882    -4.115930    -28.787018    -6.218554    -21.514452    87.787331    4.300117    5.015520    -6.929316    4.532479    -0.305354    -13.666731    0.469676    -10.831581    -5.414048    -5.139840    -0.862652    17.494339    4.658854    7.441668    -8.516556    -8.930273    -0.772676    -2.529154    1.424964    
